HIERARCHY
ROOT Hips
{
  OFFSET -79.7045 102.342 5.7837
  CHANNELS 6 Xposition Yposition Zposition Zrotation Xrotation Yrotation
  JOINT RightUpLeg
  {
    OFFSET -8.9458 -8.66707 0.101652
    CHANNELS 3 Zrotation Xrotation Yrotation
    JOINT RightLeg
    {
      OFFSET 0 -44.4227 1.3727
      CHANNELS 3 Zrotation Xrotation Yrotation
      JOINT RightFoot
      {
        OFFSET 0.253549 -42.0924 -1.46059
        CHANNELS 3 Zrotation Xrotation Yrotation
        JOINT RightToes
        {
          OFFSET 0.04 -4.41509 8.4991
          CHANNELS 3 Zrotation Xrotation Yrotation
          End Site
          {
            OFFSET -0.08 -0.137448 9.77979
          }
        }
      }
    }
  }
  JOINT Spine
  {
    OFFSET 0 11.8905 0
    CHANNELS 3 Zrotation Xrotation Yrotation
    JOINT Spine1
    {
      OFFSET 0 25.6574 0.127663
      CHANNELS 3 Zrotation Xrotation Yrotation
      JOINT HEad
      {
        OFFSET 0 8.73416 0.011341
        CHANNELS 3 Zrotation Xrotation Yrotation
        End Site
        {
          OFFSET -0.29 12.7742 2.51395
        }
      }
      JOINT LeftShoulder1
      {
        OFFSET 8.99 -0.362252 -0.22
        CHANNELS 3 Zrotation Xrotation Yrotation
        JOINT LeftArm
        {
          OFFSET 10.2827 -0.00337999 0.322123
          CHANNELS 3 Zrotation Xrotation Yrotation
          JOINT LeftForeArm
          {
            OFFSET 26.2597 0.099144 -1.42434
            CHANNELS 3 Zrotation Xrotation Yrotation
            JOINT LeftHand
            {
              OFFSET 22.0902 0.085362 1.02216
              CHANNELS 3 Zrotation Xrotation Yrotation
              End Site
              {
                OFFSET 13.419 -0.6 1.50291
              }
            }
          }
        }
      }
      JOINT RightShoulder
      {
        OFFSET -8.99 -0.362252 -0.22
        CHANNELS 3 Zrotation Xrotation Yrotation
        JOINT RightArm
        {
          OFFSET -10.2827 -0.00338 0.322123
          CHANNELS 3 Zrotation Xrotation Yrotation
          JOINT RightForeArm
          {
            OFFSET -26.364 0.099144 -1.42434
            CHANNELS 3 Zrotation Xrotation Yrotation
            JOINT RightHand
            {
              OFFSET -22.0324 0.085362 1.02216
              CHANNELS 3 Zrotation Xrotation Yrotation
              End Site
              {
                OFFSET -13.3284 -0.6 1.50291
              }
            }
          }
        }
      }
    }
  }
  JOINT LeftUpLeg
  {
    OFFSET 8.9458 -8.66707 0.101652
    CHANNELS 3 Zrotation Xrotation Yrotation
    JOINT LeftLeg
    {
      OFFSET 0 -44.4227 1.3727
      CHANNELS 3 Zrotation Xrotation Yrotation
      JOINT LeftFoot
      {
        OFFSET -0.253549 -42.0924 -1.46059
        CHANNELS 3 Zrotation Xrotation Yrotation
        JOINT LeftToes
        {
          OFFSET -0.04 -4.41509 8.4991
          CHANNELS 3 Zrotation Xrotation Yrotation
          End Site
          {
            OFFSET 0.08 -0.047448 9.77979
          }
        }
      }
    }
  }
}
MOTION
Frames:	19
Frame Time:	0.0333333
-219.762 104.713 -0.0654814 0.676073 0.840453 88.7146 1.17188 4.08548 -1.82637 -0.501838 7.40228 -13.8546 -2.92913 -6.391 -0.123716 0.0462048 0.000530889 0.662642 -2.35545 -0.440409 -0.439859 1.09772 6.63318 -0.611384 -2.51551 2.26178 -6.94149 -8.8699 -0.336169 5.56457 -22.4878 -72.4397 -29.0952 -5.29335 67.5822 9.90206 3.09028 9.66477 -6.53558 10.9954 -0.054398 -4.99339 1.08241 -43.4768 1.63373 -0.907482 25.7801 4.95117 -2.33048 9.78583 3.24727 -1.90346 0.709657 0.702943 1.54503 8.37026 10.8791 3.20698 -5.94907 -0.0341361 -1.32859e-009 8.7527e-006 -1.48005e-008 
-219.788 104.713 -0.0576921 0.654778 0.865001 88.7897 1.1316 4.03013 -1.87978 -0.455215 7.44877 -13.8771 -2.93418 -6.40024 -0.123718 0.0462048 0.000530889 0.662642 -2.43593 -0.403035 -0.492177 1.20077 6.57824 -0.685239 -2.58563 2.48015 -6.92362 -8.92476 -0.346071 5.61845 -21.9001 -72.2611 -28.5646 -5.53223 67.1137 9.97384 3.16653 9.66835 -5.93945 10.9819 -0.0526577 -4.98405 1.08209 -43.3362 1.67136 -0.776895 25.2053 5.06131 -2.75657 9.76753 2.41156 -1.93254 0.66051 0.659326 1.56547 8.37399 10.8546 3.18383 -5.91425 -0.034134 -1.32859e-009 8.7527e-006 -1.48005e-008 
-219.806 104.716 -0.0425136 0.663763 0.874343 88.8039 1.12518 4.03174 -1.89527 -0.43568 7.43696 -13.8996 -3.1348 -6.37845 -0.123713 0.0462048 0.000530889 0.662642 -2.45546 -0.307709 -0.502544 1.2367 6.46536 -0.706945 -2.66826 2.76398 -7.13265 -9.11434 -0.368783 5.73458 -22.1054 -72.2461 -28.9958 -5.57002 67.1554 9.99987 3.37549 9.65823 -5.42081 11.0877 -0.158577 -5.55599 1.64404 -43.6719 2.71881 -0.800614 25.7465 4.88983 -3.27037 9.7452 1.71265 -1.93343 0.663285 0.659212 1.56815 8.36231 10.836 3.22521 -5.88872 -0.0341324 -1.32859e-009 8.7527e-006 -1.48005e-008 
-219.823 104.724 -0.0320613 0.716022 0.89074 88.8233 1.111 4.10152 -1.92235 -0.426732 7.39254 -13.8867 -3.09426 -6.35643 -0.123707 0.0462048 0.000530889 0.662642 -2.43304 -0.363365 -0.526016 1.17729 6.60386 -0.716703 -2.97307 2.94355 -7.58694 -9.04804 -0.366584 5.72916 -22.0678 -72.28 -28.8766 -5.53852 67.2627 9.99631 3.35858 9.65754 -5.56053 11.0802 -0.152431 -5.52288 1.72649 -43.7192 2.69654 -0.870804 25.7472 4.82299 -3.25491 9.74229 1.93785 -1.95093 0.740808 0.645704 1.57906 8.28825 10.833 3.22973 -5.82066 -0.0341282 -1.32859e-009 8.7527e-006 -1.48005e-008 
-219.835 104.726 -0.0216733 0.760123 0.920196 88.8757 1.08765 4.17714 -1.95721 -0.427016 7.33072 -13.8962 -3.04812 -6.33752 -0.123703 0.0462048 0.000530889 0.662642 -2.42804 -0.299566 -0.538966 1.13149 6.5589 -0.716552 -2.91978 3.13938 -7.49197 -9.01039 -0.368441 5.74502 -22.3485 -72.407 -29.1671 -5.36374 67.447 9.92369 3.12352 9.66925 -6.09417 11.0871 -0.126361 -5.37975 1.52559 -43.6135 2.35898 -0.853048 25.5647 4.74185 -3.23972 9.74181 2.00947 -1.97386 0.839574 0.630015 1.57606 8.16571 10.7957 3.23196 -5.77476 -0.0341255 -1.32859e-009 8.7527e-006 -1.48005e-008 
-219.852 104.728 -0.00575495 0.748667 0.937868 88.8355 1.07722 4.12162 -1.961 -0.429213 7.38323 -13.8632 -3.13653 -6.33242 -0.123702 0.0462048 0.000530889 0.662642 -2.44299 -0.381727 -0.494607 1.15457 6.58878 -0.67478 -2.87911 3.32771 -7.40761 -9.07371 -0.363804 5.70909 -22.629 -72.559 -29.4402 -5.08201 67.3567 9.75707 2.97406 9.68361 -6.14933 10.9971 -0.126613 -5.3895 1.56537 -43.5598 2.23652 -0.847181 25.5791 4.68744 -3.35109 9.7355 1.99498 -1.98647 0.854803 0.622539 1.5779 8.08451 10.8436 3.17867 -5.71154 -0.0341217 -1.32859e-009 8.7527e-006 -1.48005e-008 
-219.865 104.729 0.00892791 0.749702 0.92579 88.9 1.0919 4.12888 -1.95563 -0.399718 7.37298 -13.9415 -3.09949 -6.34156 -0.123704 0.0462048 0.000530889 0.662642 -2.46118 -0.430219 -0.514751 1.16069 6.63698 -0.698955 -2.7394 3.5802 -7.28866 -8.97736 -0.351128 5.64361 -22.6378 -72.6461 -29.2993 -4.97758 67.5961 9.72933 2.90059 9.68319 -6.59248 11.0743 -0.125971 -5.37882 1.44809 -43.3231 2.11972 -0.680574 24.8269 4.79876 -3.46111 9.73897 1.4792 -1.9665 0.776081 0.631076 1.58729 8.21829 10.7633 3.27004 -5.73489 -0.0341231 -1.32859e-009 8.7527e-006 -1.48005e-008 
-219.872 104.729 0.0236024 0.778752 0.902926 88.8908 1.14401 4.17193 -1.90307 -0.437036 7.33493 -13.9821 -2.99937 -6.31542 -0.123697 0.0462048 0.000530889 0.662642 -2.44144 -0.389797 -0.490923 1.17553 6.57209 -0.679139 -2.81499 3.68001 -7.46055 -9.04293 -0.347488 5.61383 -22.1341 -72.5569 -28.8573 -5.16642 67.5397 9.82658 3.14115 9.65944 -6.53877 11.1168 -0.11914 -5.33755 1.33917 -43.4601 1.99606 -0.822406 24.9136 4.77704 -3.18865 9.75093 1.70723 -1.92397 0.795118 0.669451 1.57494 8.23938 10.7449 3.27102 -5.74594 -0.0341237 -1.32859e-009 8.7527e-006 -1.48005e-008 
-219.875 104.729 0.0353625 0.844108 0.905067 88.841 1.14327 4.21799 -1.92352 -0.435599 7.37873 -13.9271 -3.06414 -6.34623 -0.123705 0.0462048 0.000530889 0.662642 -2.44018 -0.311679 -0.457789 1.19297 6.46002 -0.648977 -2.82783 3.86683 -7.37056 -9.18348 -0.355051 5.64331 -21.4664 -72.4671 -28.294 -5.44988 67.6293 9.99473 3.08364 9.66912 -6.33183 11.04 -0.10289 -5.25576 1.33956 -43.3433 1.82848 -0.780722 24.7039 4.85534 -3.18004 9.75166 1.62517 -1.92332 0.875935 0.672277 1.58176 8.22741 10.785 3.18705 -5.77529 -0.0341255 -1.32859e-009 8.7527e-006 -1.48005e-008 
-219.878 104.729 0.0395816 0.915531 0.894092 88.8428 1.1429 4.33586 -1.95698 -0.406048 7.29073 -13.8851 -3.15737 -6.29302 -0.123692 0.0462048 0.000530889 0.662642 -2.42839 -0.268043 -0.455675 1.21705 6.44141 -0.655495 -2.82045 4.00237 -7.37328 -9.34393 -0.367894 5.7017 -21.6354 -72.4406 -28.5927 -5.5111 67.7074 10.0388 3.16456 9.66096 -6.33129 10.9545 -0.102694 -5.26178 1.55452 -43.4041 1.89009 -0.850965 24.6988 5.00149 -3.19004 9.75444 1.41927 -1.91595 0.932821 0.679851 1.5949 8.2632 10.7729 3.16038 -5.78084 -0.0341258 -1.32859e-009 8.7527e-006 -1.48005e-008 
-219.893 104.729 0.0516043 0.938048 0.903968 88.8435 1.1442 4.32241 -1.95469 -0.417449 7.34232 -13.8816 -3.12518 -6.31481 -0.123697 0.0462048 0.000530889 0.662642 -2.47654 -0.34489 -0.450075 1.27668 6.54071 -0.660423 -2.7436 4.08661 -7.48994 -9.44982 -0.373565 5.72303 -21.8133 -72.4626 -28.8009 -5.44154 67.6178 9.98862 3.14835 9.66497 -6.20362 10.847 -0.0806574 -5.14974 1.68077 -43.5326 1.75875 -1.00784 25.3805 4.84905 -3.13704 9.75254 1.98794 -1.92324 0.950582 0.675172 1.59584 8.252 10.7898 3.19583 -5.74343 -0.0341236 -1.32859e-009 8.7527e-006 -1.48005e-008 
-219.922 104.73 0.0672233 0.950516 0.878043 88.8346 1.17457 4.2899 -1.93845 -0.402647 7.40404 -13.9079 -3.1239 -6.33967 -0.123703 0.0462048 0.000530889 0.662642 -2.44407 -0.351841 -0.424519 1.26498 6.59015 -0.634112 -2.70938 4.02207 -7.61139 -9.53854 -0.379161 5.74551 -22.231 -72.4724 -29.2179 -5.37533 67.6363 9.9544 3.10175 9.67016 -6.17494 10.9307 -0.0864929 -5.17502 1.79492 -43.6043 1.8568 -1.03991 25.8377 4.69475 -3.07793 9.7484 2.21419 -1.87461 0.912276 0.711691 1.58302 8.32372 10.7569 3.1719 -5.78234 -0.0341259 -1.32859e-009 8.7527e-006 -1.48005e-008 
-219.962 104.73 0.0794668 0.949573 0.866968 88.8597 1.17958 4.22492 -1.94351 -0.369477 7.49599 -13.9228 -3.10547 -6.38229 -0.123714 0.0462048 0.000530889 0.662642 -2.43363 -0.283837 -0.417923 1.24699 6.52801 -0.626333 -2.74463 3.99863 -7.68028 -9.64385 -0.396883 5.83746 -22.8856 -72.4159 -29.8834 -5.37667 67.6306 9.9544 3.11583 9.6681 -6.21078 11.0496 -0.0984648 -5.2304 1.98002 -43.4294 1.94695 -0.911332 25.4345 4.81867 -3.24937 9.74134 1.99036 -1.84579 0.826194 0.735847 1.5711 8.43177 10.7 3.21865 -5.78746 -0.0341262 -1.32859e-009 8.7527e-006 -1.48005e-008 
-219.996 104.731 0.104185 0.980339 0.851678 88.816 1.22373 4.20508 -1.89838 -0.39951 7.54794 -13.9246 -3.12059 -6.37713 -0.123712 0.0462048 0.000530889 0.662642 -2.43453 -0.218294 -0.380897 1.22895 6.47272 -0.584843 -2.66738 4.02829 -7.66758 -9.79961 -0.406909 5.87651 -23.8745 -72.431 -30.8547 -5.25454 67.8029 9.90897 3.22103 9.65902 -6.13439 11.3054 -0.134838 -5.40543 2.28522 -43.3332 2.28085 -0.798579 25.4385 4.93178 -3.09419 9.74419 2.46438 -1.79681 0.838591 0.785753 1.54219 8.4468 10.6544 3.20994 -5.80808 -0.0341275 -1.32859e-009 8.7527e-006 -1.48005e-008 
-220.052 104.731 0.120821 0.98208 0.831354 88.831 1.2464 4.15511 -1.88579 -0.376823 7.58616 -13.9584 -3.10845 -6.38616 -0.123714 0.0462048 0.000530889 0.662642 -2.41296 -0.204171 -0.366847 1.20061 6.50607 -0.566129 -2.61807 3.95328 -7.61558 -9.99947 -0.432712 6.00136 -25.4707 -72.4727 -32.4343 -5.03073 68.1618 9.83075 3.14427 9.66662 -6.14325 11.5742 -0.150442 -5.46463 2.56419 -43.3256 2.40851 -0.812124 25.7434 5.01149 -2.67559 9.76133 3.13403 -1.75826 0.753007 0.809343 1.53626 8.54849 10.6229 3.21084 -5.81042 -0.0341276 -1.32859e-009 8.7527e-006 -1.48005e-008 
-220.087 104.731 0.1372 1.03528 0.845743 88.867 1.24209 4.17729 -1.90102 -0.372879 7.62367 -13.9797 -3.11221 -6.40262 -0.123718 0.0462048 0.000530889 0.662642 -2.47885 -0.103783 -0.349256 1.25652 6.43718 -0.561355 -2.56077 4.06612 -7.51154 -10.3015 -0.438801 5.99703 -26.8906 -72.5388 -33.7511 -4.73229 68.4274 9.69781 3.05499 9.66811 -6.54274 11.9335 -0.125699 -5.30143 2.69753 -43.2708 2.21297 -0.834832 25.801 5.15213 -2.91818 9.7504 2.71849 -1.76335 0.792599 0.801807 1.5458 8.53548 10.5797 3.10419 -5.80443 -0.0341273 -1.32859e-009 8.7527e-006 -1.48005e-008 
-220.123 104.731 0.149522 1.05963 0.871454 88.9158 1.21812 4.18538 -1.93473 -0.355567 7.61954 -13.9883 -3.14518 -6.38683 -0.123715 0.0462048 0.000530889 0.662642 -2.52193 -0.0823695 -0.376712 1.23316 6.45785 -0.58175 -2.37849 4.13678 -7.28239 -10.6564 -0.4802 6.18307 -29.1806 -72.4787 -35.9482 -4.47724 68.9022 9.61505 3.23039 9.64604 -6.76414 12.3369 -0.137441 -5.32665 3.1202 -43.1269 2.39304 -0.72513 25.7237 5.16072 -3.02915 9.75021 2.33166 -1.79031 0.796427 0.771269 1.5624 8.51991 10.5755 3.11475 -5.75663 -0.0341244 -1.32859e-009 8.7527e-006 -1.48005e-008 
-220.168 104.732 0.157103 1.02358 0.895142 89.0062 1.18539 4.09896 -1.95824 -0.3246 7.68555 -14.0238 -3.13261 -6.41327 -0.123721 0.0462048 0.000530889 0.662642 -2.57202 -0.175887 -0.404576 1.25665 6.56781 -0.611338 -2.355 4.19289 -7.27892 -11.1284 -0.539857 6.44655 -31.7365 -72.1418 -38.4068 -4.43102 68.9749 9.59816 3.24848 9.6515 -6.37755 12.8295 -0.198903 -5.5962 3.95279 -42.7836 3.23994 -0.323395 25.2515 5.08322 -3.45229 9.73891 1.49573 -1.80558 0.715222 0.746367 1.56028 8.53472 10.5148 3.14211 -5.72801 -0.0341227 -1.32859e-009 8.7527e-006 -1.48005e-008 
-220.209 104.732 0.164084 1.01291 0.91547 89.0493 1.17846 4.04282 -1.95312 -0.331331 7.72507 -14.0761 -3.12004 -6.41768 -0.123722 0.0462048 0.000530889 0.662642 -2.60775 -0.281465 -0.388153 1.28427 6.72175 -0.598488 -2.47634 4.23067 -7.22484 -11.6256 -0.572012 6.54786 -34.4646 -71.8971 -40.8734 -4.19106 69.4152 9.51836 3.19424 9.65904 -6.27948 13.2641 -0.221834 -5.66779 4.8429 -42.8639 3.80892 -0.363224 25.835 4.81089 -3.47549 9.73851 1.53593 -1.82336 0.665262 0.728974 1.56141 8.54926 10.5184 3.15484 -5.71035 -0.0341216 -1.32859e-009 8.7527e-006 -1.48005e-008 
